<svg xmlns="http://www.w3.org/2000/svg" xmlns:xlink="http://www.w3.org/1999/xlink" width="269.93" height="268" viewBox="0 0 269.93 268"><defs><style>.a,.s{fill:none;}.b{clip-path:url(#a);}.c{fill:#f1f2f7;}.d{clip-path:url(#b);}.e{clip-path:url(#c);}.f{fill:#e8ebf2;}.g{clip-path:url(#d);}.h{fill:#e0e2ee;}.i{clip-path:url(#e);}.j{clip-path:url(#f);}.k{clip-path:url(#g);}.l{fill:#d8dbea;}.m{clip-path:url(#h);}.n{fill:#e1e3ef;}.o{fill:url(#i);}.p{fill:#bec0d6;}.q{fill:#f7fff6;}.r{fill:#fff;}.s{stroke:#d7dae9;stroke-miterlimit:10;stroke-width:2px;stroke-dasharray:7;}</style><clipPath id="a"><path class="a" d="M55.852,22.872H26.9a6.861,6.861,0,0,0,0,13.722H45.952A6.855,6.855,0,0,1,50.78,48.3a6.794,6.794,0,0,1-4.828,2.018H6.839a6.861,6.861,0,0,0,0,13.722H24.6a105.191,105.191,0,0,0-8.333,41.17,106.726,106.726,0,0,0,1.144,15.6q.471,3.191,1.136,6.322c12.9-1.98,26.59-3.573,40.879-4.735l1.075.984,1.012-1.148c17.167-1.34,35.185-2.054,53.769-2.054,39.484,0,76.432,3.22,108.023,8.819a105.448,105.448,0,0,0,2.427-16.316q.266-3.705.264-7.474C226,47.1,179.053,0,121.136,0A104.2,104.2,0,0,0,55.852,22.872Z" transform="translate(0 0.282)"/></clipPath><clipPath id="b"><path class="a" d="M6.927,0a7,7,0,0,0,0,14h4.145a7,7,0,0,0,0-14Z" transform="translate(0 0.282)"/></clipPath><clipPath id="c"><path class="a" d="M42.957,2.041,41.944,3.182,40.869,2.2C26.584,3.359,12.9,4.94,0,6.909A104.808,104.808,0,0,0,102.56,89.668a104.581,104.581,0,0,0,62.909-20.909h18.657a6.818,6.818,0,0,0,0-13.636h-8.114a6.818,6.818,0,0,1,0-13.636h43.673a6.818,6.818,0,0,0,0-13.637H198.27a103.263,103.263,0,0,0,6.44-19.086C173.126,3.2,136.187,0,96.712,0,78.133,0,60.118.709,42.957,2.041Z" transform="translate(0.408 0.614)"/></clipPath><clipPath id="d"><path class="a" d="M161.578,21c-15.967-2.888-33.12-5.119-50.985-6.633-18.432-1.562-37.574-2.353-56.9-2.353-7.806,0-15.65.13-23.314.387L55.418,5.488l43.069,6.525,18.7-6.525,4.737,6.525,11.3-8.386L143.775,13.3,160.426,0,164,4.373A110.137,110.137,0,0,1,161.578,21ZM0,14.106l0,0L11.889.332,30.383,12.4c-10.218.34-20.44.914-30.381,1.705Z" transform="translate(0 0.282)"/></clipPath><clipPath id="e"><path class="a" d="M0,.144,1.03,1,2,0C1.332.044.663.092,0,.144Z" transform="translate(0 0.282)"/></clipPath><clipPath id="f"><path class="a" d="M0,16.668Q.471,19.865,1.134,23c12.9-1.983,26.582-3.578,40.866-4.742L22.109,0Z" transform="translate(0 0.282)"/></clipPath><clipPath id="g"><path class="a" d="M0,3.5C0,5.432,17.461,7,39,7S78,5.432,78,3.5,60.54,0,39,0,0,1.568,0,3.5Z" transform="translate(0.717)"/></clipPath><clipPath id="h"><path class="a" d="M0,7A7,7,0,1,0,7,0,7.021,7.021,0,0,0,0,7Z" transform="translate(0 0.282)"/></clipPath><linearGradient id="i" x1="1.067" y1="-0.043" x2="0.624" y2="0.925" gradientUnits="objectBoundingBox"><stop offset="0" stop-color="#ad7bff"/><stop offset="1" stop-color="#7b2aff"/></linearGradient></defs><g transform="translate(25 57.718)"><path class="a" d="M55.852,22.872H26.9a6.861,6.861,0,0,0,0,13.722H45.952A6.855,6.855,0,0,1,50.78,48.3a6.794,6.794,0,0,1-4.828,2.018H6.839a6.861,6.861,0,0,0,0,13.722H24.6a105.191,105.191,0,0,0-8.333,41.17,106.726,106.726,0,0,0,1.144,15.6q.471,3.191,1.136,6.322c12.9-1.98,26.59-3.573,40.879-4.735l1.075.984,1.012-1.148c17.167-1.34,35.185-2.054,53.769-2.054,39.484,0,76.432,3.22,108.023,8.819a105.448,105.448,0,0,0,2.427-16.316q.266-3.705.264-7.474C226,47.1,179.053,0,121.136,0A104.2,104.2,0,0,0,55.852,22.872Z" transform="translate(0 0.282)"/><g class="b"><path class="c" d="M0,139H236V0H0Z" transform="translate(-5 -4.718)"/></g></g><g transform="translate(0 107.718)"><path class="a" d="M6.927,0a7,7,0,0,0,0,14h4.145a7,7,0,0,0,0-14Z" transform="translate(0 0.282)"/><g class="d"><path class="c" d="M0,24H28V0H0Z" transform="translate(-5 -4.718)"/></g></g><g transform="translate(43 177.718)"><path class="a" d="M42.957,2.041,41.944,3.182,40.869,2.2C26.584,3.359,12.9,4.94,0,6.909A104.808,104.808,0,0,0,102.56,89.668a104.581,104.581,0,0,0,62.909-20.909h18.657a6.818,6.818,0,0,0,0-13.636h-8.114a6.818,6.818,0,0,1,0-13.636h43.673a6.818,6.818,0,0,0,0-13.637H198.27a103.263,103.263,0,0,0,6.44-19.086C173.126,3.2,136.187,0,96.712,0,78.133,0,60.118.709,42.957,2.041Z" transform="translate(0.408 0.614)"/><g class="e"><path class="f" d="M0,99.668H236.521V0H0Z" transform="translate(-4.592 -4.386)"/></g></g><g transform="translate(86 165.718)"><path class="a" d="M161.578,21c-15.967-2.888-33.12-5.119-50.985-6.633-18.432-1.562-37.574-2.353-56.9-2.353-7.806,0-15.65.13-23.314.387L55.418,5.488l43.069,6.525,18.7-6.525,4.737,6.525,11.3-8.386L143.775,13.3,160.426,0,164,4.373A110.137,110.137,0,0,1,161.578,21ZM0,14.106l0,0L11.889.332,30.383,12.4c-10.218.34-20.44.914-30.381,1.705Z" transform="translate(0 0.282)"/><g class="g"><path class="h" d="M0,31H174V0H0Z" transform="translate(-5 -4.718)"/></g></g><g transform="translate(84 179.718)"><path class="a" d="M0,.144,1.03,1,2,0C1.332.044.663.092,0,.144Z" transform="translate(0 0.282)"/><g class="i"><path class="c" d="M0,11H12V0H0Z" transform="translate(-5 -4.718)"/></g></g><g transform="translate(42 161.718)"><path class="a" d="M0,16.668Q.471,19.865,1.134,23c12.9-1.983,26.582-3.578,40.866-4.742L22.109,0Z" transform="translate(0 0.282)"/><g class="j"><path class="h" d="M0,33H52V0H0Z" transform="translate(-5 -4.718)"/></g></g><g transform="translate(108 217.718)"><path class="a" d="M0,3.5C0,5.432,17.461,7,39,7S78,5.432,78,3.5,60.54,0,39,0,0,1.568,0,3.5Z" transform="translate(0.717)"/><g class="k"><path class="l" d="M0,17H88V0H0Z" transform="translate(-4.282 -5)"/></g></g><g transform="translate(241 232.718)"><path class="a" d="M0,7A7,7,0,1,0,7,0,7.021,7.021,0,0,0,0,7Z" transform="translate(0 0.282)"/><g class="m"><path class="n" d="M0,24H24V0H0Z" transform="translate(-5 -4.718)"/></g></g><g transform="translate(105 121.718)"><path class="l" d="M8.337,16.674a8.337,8.337,0,1,1,8.339-8.339A8.347,8.347,0,0,1,8.337,16.674Zm0-14.233a5.9,5.9,0,1,0,5.9,5.894A5.9,5.9,0,0,0,8.337,2.442Z" transform="translate(33.349 0.283)"/><path class="l" d="M53.339,79.205H8.15A8.15,8.15,0,0,1,0,71.056V29.5A29.587,29.587,0,0,1,29.5,0h2.488a29.586,29.586,0,0,1,29.5,29.5V71.056a8.148,8.148,0,0,1-8.149,8.149" transform="translate(10.942 7.577)"/><path class="o" d="M3.7,29.7H3.261A3.271,3.271,0,0,1,0,26.441V3.261A3.27,3.27,0,0,1,3.261,0H7.682a3.27,3.27,0,0,1,3.26,3.261v19.2A7.261,7.261,0,0,1,3.7,29.7" transform="translate(72.431 47.18)"/><path class="o" d="M7.683,29.7H7.241A7.261,7.261,0,0,1,0,22.462V3.261A3.27,3.27,0,0,1,3.261,0H7.683a3.27,3.27,0,0,1,3.26,3.261v23.18A3.27,3.27,0,0,1,7.683,29.7" transform="translate(0 47.18)"/><path class="p" d="M39.6,13.536,19.8,19.8,0,13.536V0H39.6Z" transform="translate(21.364 62.03)"/><path class="o" d="M4.652,8.657l-.929.926a1.981,1.981,0,0,1-2.8,0L0,8.657V0H4.652Z" transform="translate(24.724 70.511)"/><path class="q" d="M1.881.94A.941.941,0,1,1,.941,0a.94.94,0,0,1,.94.94" transform="translate(26.109 76.705)"/><path class="o" d="M4.652,8.657l-.929.926a1.981,1.981,0,0,1-2.8,0L0,8.657V0H4.652Z" transform="translate(51.299 70.511)"/><path class="q" d="M1.881.94A.941.941,0,1,1,.941,0a.94.94,0,0,1,.94.94" transform="translate(52.684 76.705)"/><path class="r" d="M51.783,26.414V39.866H0V26.414C-.963,8.2,12.045,0,22.022,0h4.384C39.411,0,51.783,13.4,51.783,26.414" transform="translate(16.279 12.976)"/></g><g transform="translate(123)"><path class="s" d="M40.479,0C5.839,2.932-6.893,32.253,3.537,49.344,10.9,61.4,23.368,77.7,46.614,73.791s25.2-25.424,12.962-28.35S3.719,56.164,8.648,87.693C12.206,110.443,43.047,117,43.047,117" transform="translate(0 42)"/><path class="l" d="M6.5,24s4.964-12.966,5.487-18.01C12.263,3.354,7.9-3.985,2.783,2.8S0,17.914,6.5,24" transform="translate(54 0)"/><path class="l" d="M9.887.879C4.072-1.088,1.44.445.318,3.506s.444,8.888,9.215,10.217A128.008,128.008,0,0,0,27,15S15.7,2.845,9.887.879" transform="translate(33 9)"/><path class="l" d="M7.516,1.569A12.938,12.938,0,0,1,8.017,0,26.011,26.011,0,0,0,4.752.73,20.033,20.033,0,0,0,1.4,2.061,11.886,11.886,0,0,0,.338,4.822,12.028,12.028,0,0,0,8.188,19c.633-.125,1.269-.271,1.906-.457A25.405,25.405,0,0,0,15,16.532,13.022,13.022,0,0,1,7.516,1.569" transform="translate(52 25)"/><path class="l" d="M12.171,1.732A13.922,13.922,0,0,1,12.711,0C7.654,3.239,4.822,8.267,5.289,11.2A58.627,58.627,0,0,0,0,13.758a58.837,58.837,0,0,0,5.99-.868c1.9,2.781,7.177,4.642,13.01,3.975A13.589,13.589,0,0,1,12.171,1.732" transform="translate(39 28)"/><path class="l" d="M7.109,15A11.2,11.2,0,0,1,.3,1.949,11.455,11.455,0,0,1,.9.128,19.967,19.967,0,0,1,3.133,0a13.78,13.78,0,0,1,6.29,1.347A6.313,6.313,0,0,1,12.785,5.13a6.516,6.516,0,0,1-.879,5.168A14.573,14.573,0,0,1,7.11,15ZM7.5,2a2.5,2.5,0,0,0-.583,4.93A2.532,2.532,0,0,0,7.506,7,2.5,2.5,0,0,0,7.5,2Z" transform="translate(61 25)"/></g></svg>